# xmcd
#
# Track frame offsets: 
#        150
#        19339
#        34870
#        63382
#        76144
#        96966
#        124982
#        145382
#        161858
#
# Disc length: 2395 seconds
#
# Revision: 0
# Processed by: cddbd v1.5.2PL0 Copyright (c) Steve Scherf et al.
# Submitted via: ExactAudioCopy v0.99pb5
#
DISCID=7c095909
DTITLE=Henry Oden - Henry Oden
DYEAR=2004
DGENRE=Blues
TTITLE0=You Just Don't Know
TTITLE1=Best Choice
TTITLE2=Madame Zorra and Sister Rose
TTITLE3=71730
TTITLE4=Book Of Lies
TTITLE5=Even If It's Wrong
TTITLE6=On Me
TTITLE7=I Didn't Mean 
TTITLE8=Rock
EXTD=
EXTT0=
EXTT1=
EXTT2=
EXTT3=
EXTT4=
EXTT5=
EXTT6=
EXTT7=
EXTT8=
PLAYORDER=
